Coordinates
version=1
nRows=10
nColumns=27
inDegrees=yes

Units are S.I. units (second, meters, Newtons, ...)
If the header above contains a line with 'inDegrees', this indicates whether rotational values are in degrees (yes) or radians (no).

endheader
time	pelvis_rotation	pelvis_tilt	pelvis_list	pelvis_tx	pelvis_ty	pelvis_tz	hip_flexion_r	hip_adduction_r	hip_rotation_r	knee_angle_r	knee_rotation_r	knee_adduction_r	knee_angle_r_beta	ankle_angle_r	subtalar_angle_r	mtp_angle_r	hip_flexion_l	hip_adduction_l	hip_rotation_l	knee_angle_l	knee_rotation_l	knee_adduction_l	knee_angle_l_beta	ankle_angle_l	subtalar_angle_l	mtp_angle_l
      2.29500000	     -1.94591015	    -24.64370453	     -0.25261738	      0.03102782	      0.83641661	     -1.18563558	     39.97692811	    -23.50254921	    -25.75686969	     19.88531508	      0.00000000	      0.00000000	      0.34706422	     -7.31175668	      0.00000000	      0.00000000	     38.31662408	    -22.48832582	    -15.61982398	     15.38950516	      0.00000000	      0.00000000	      0.26859754	     -9.03450743	      0.00000000	      0.00000000
      2.30000000	     -1.50136462	    -25.21928760	     -0.14625757	      0.02961519	      0.83578733	     -1.18587971	     40.82713629	    -23.89844490	    -25.98221775	     20.54002593	      0.00000000	      0.00000000	      0.35849108	     -7.16238217	      0.00000000	      0.00000000	     39.53032890	    -22.36082948	    -14.95735529	     15.98979912	      0.00000000	      0.00000000	      0.27907464	     -8.86776980	      0.00000000	      0.00000000
      2.30500000	     -1.56248642	    -26.05324709	      0.17356579	      0.02763809	      0.83491320	     -1.18631938	     42.48189543	    -24.36554905	    -25.28406685	     21.49696365	      0.00000000	      0.00000000	      0.37519279	     -6.92131593	      0.00000000	      0.00000000	     40.76363802	    -22.20790997	    -15.01151551	     16.63556300	      0.00000000	      0.00000000	      0.29034535	     -8.69007810	      0.00000000	      0.00000000
      2.31000000	     -1.91510325	    -26.75249246	      0.85607619	      0.02562585	      0.83389518	     -1.18699690	     44.43471991	    -25.05570288	    -23.89930855	     22.70319487	      0.00000000	      0.00000000	      0.39624550	     -6.57717306	      0.00000000	      0.00000000	     41.49544688	    -21.83193267	    -15.72911787	     17.08275472	      0.00000000	      0.00000000	      0.29815032	     -8.59402308	      0.00000000	      0.00000000
      2.31500000	     -1.71249030	    -27.52611547	      1.29301229	      0.02366522	      0.83285545	     -1.18747441	     46.00326359	    -25.68641524	    -23.40558899	     23.72268232	      0.00000000	      0.00000000	      0.41403891	     -6.32635657	      0.00000000	      0.00000000	     42.75519242	    -21.53330919	    -15.56712620	     17.73221670	      0.00000000	      0.00000000	      0.30948557	     -8.42213343	      0.00000000	      0.00000000
      2.32000000	     -1.72511094	    -28.28847210	      1.46346256	      0.02173102	      0.83179668	     -1.18769562	     47.51880834	    -25.97795606	    -22.81631758	     24.61930056	      0.00000000	      0.00000000	      0.42968785	     -6.10983061	      0.00000000	      0.00000000	     44.04018936	    -21.55989855	    -15.52645873	     18.50565417	      0.00000000	      0.00000000	      0.32298460	     -8.21640745	      0.00000000	      0.00000000
      2.32500000	     -1.22544861	    -28.99700482	      1.68534378	      0.01990824	      0.83069379	     -1.18797069	     48.69765498	    -26.51092177	    -22.86493425	     25.46947819	      0.00000000	      0.00000000	      0.44452625	     -5.92411050	      0.00000000	      0.00000000	     45.49702866	    -21.36856331	    -14.86872629	     19.26610154	      0.00000000	      0.00000000	      0.33625691	     -8.04025250	      0.00000000	      0.00000000
      2.33000000	     -1.16170807	    -29.74822734	      1.83647072	      0.01795121	      0.82947721	     -1.18815576	     50.17882559	    -26.81400700	    -22.37638340	     26.37886913	      0.00000000	      0.00000000	      0.46039812	     -5.72133085	      0.00000000	      0.00000000	     46.84581904	    -21.39915864	    -14.72164411	     20.08688923	      0.00000000	      0.00000000	      0.35058235	     -7.79813194	      0.00000000	      0.00000000
      2.33500000	     -1.35035129	    -30.50386790	      2.55249603	      0.01569033	      0.82794191	     -1.18870696	     52.30676630	    -27.46288686	    -20.95229627	     27.67072303	      0.00000000	      0.00000000	      0.48294522	     -5.40842211	      0.00000000	      0.00000000	     47.81701264	    -21.07919652	    -15.30860456	     20.73759195	      0.00000000	      0.00000000	      0.36193926	     -7.63543113	      0.00000000	      0.00000000
      2.34000000	     -1.24346734	    -31.17443858	      2.92026381	      0.01374504	      0.82649344	     -1.18894542	     53.86901327	    -27.91520000	    -20.26041543	     28.68181159	      0.00000000	      0.00000000	      0.50059205	     -5.16742326	      0.00000000	      0.00000000	     49.01053416	    -20.96488698	    -15.30275138	     21.51770721	      0.00000000	      0.00000000	      0.37555484	     -7.48013288	      0.00000000	      0.00000000
